<svg width="18" height="10" viewBox="0 0 18 10" fill="none" xmlns="http://www.w3.org/2000/svg">
<path d="M9.00022 9.3678C8.80143 9.36508 8.61083 9.28765 8.46584 9.15071L0.965841 1.59947C0.846243 1.45275 0.785124 1.26649 0.794372 1.07691C0.803619 0.887337 0.882572 0.708002 1.01587 0.57379C1.14917 0.439578 1.32729 0.360085 1.51558 0.350775C1.70387 0.341464 1.88887 0.403001 2.03459 0.523415L9.00022 7.54607L15.9658 0.523415C16.1116 0.403001 16.2966 0.341464 16.4848 0.350775C16.6731 0.360085 16.8513 0.439578 16.9846 0.57379C17.1179 0.708002 17.1968 0.887337 17.2061 1.07691C17.2153 1.26649 17.1542 1.45275 17.0346 1.59947L9.53459 9.15071C9.3896 9.28765 9.199 9.36508 9.00022 9.3678Z" fill="#AFB5C0"/>
</svg>
