<svg width="32" height="32" viewBox="0 0 32 32" fill="none" xmlns="http://www.w3.org/2000/svg">
<g clip-path="url(#clip0_5_37)">
<rect width="32" height="32" rx="16" fill="url(#paint0_linear_5_37)"/>
<g filter="url(#filter0_d_5_37)">
<path d="M9.77783 17.4875L15.8173 26.1406V21.161L9.77783 17.4875Z" fill="white"/>
<path d="M15.8169 26.2222L21.7774 17.4875L15.8169 21.2018V26.2222Z" fill="#DFFFDA"/>
<path d="M15.7778 14.9082V19.8715L19.3778 17.0579L15.7778 14.9082Z" fill="#DFFFDA"/>
<path d="M15.7778 6.22192V13.5688L9.77783 16.426L15.7778 6.22192Z" fill="white"/>
<path d="M21.7778 16.3443L15.7778 13.5688V6.22192L21.7778 16.3443Z" fill="#DFFFDA"/>
<path d="M12.1777 17.1211L15.7777 19.8715L15.7542 14.9082L12.1777 17.1211Z" fill="white"/>
</g>
</g>
<rect x="0.5" y="0.5" width="31" height="31" rx="15.5" stroke="url(#paint1_linear_5_37)"/>
<defs>
<filter id="filter0_d_5_37" x="5.77783" y="3.22192" width="24" height="32.0002" filterUnits="userSpaceOnUse" color-interpolation-filters="sRGB">
<feFlood flood-opacity="0" result="BackgroundImageFix"/>
<feColorMatrix in="SourceAlpha" type="matrix" values="0 0 0 0 0 0 0 0 0 0 0 0 0 0 0 0 0 0 127 0" result="hardAlpha"/>
<feOffset dx="2" dy="3"/>
<feGaussianBlur stdDeviation="3"/>
<feComposite in2="hardAlpha" operator="out"/>
<feColorMatrix type="matrix" values="0 0 0 0 0.0748611 0 0 0 0 0.366667 0 0 0 0 0.11357 0 0 0 1 0"/>
<feBlend mode="normal" in2="BackgroundImageFix" result="effect1_dropShadow_5_37"/>
<feBlend mode="normal" in="SourceGraphic" in2="effect1_dropShadow_5_37" result="shape"/>
</filter>
<linearGradient id="paint0_linear_5_37" x1="16" y1="2" x2="34.768" y2="36.1301" gradientUnits="userSpaceOnUse">
<stop stop-color="#1CAC70"/>
<stop offset="1" stop-color="#EDDC46"/>
</linearGradient>
<linearGradient id="paint1_linear_5_37" x1="16" y1="0" x2="16" y2="32" gradientUnits="userSpaceOnUse">
<stop stop-color="#3461FF"/>
<stop offset="1" stop-color="#8454EB"/>
</linearGradient>
<clipPath id="clip0_5_37">
<rect width="32" height="32" rx="16" fill="white"/>
</clipPath>
</defs>
</svg>
