<svg width="22" height="21" viewBox="0 0 22 21" fill="none" xmlns="http://www.w3.org/2000/svg">
<path fill-rule="evenodd" clip-rule="evenodd" d="M15.659 0.450562C18.989 0.450562 21.5 3.18767 21.5 6.81733V13.7362C21.5 15.5938 20.848 17.2721 19.663 18.4629C18.6 19.5297 17.221 20.0949 15.675 20.0949H5.822C4.279 20.0949 2.901 19.5307 1.837 18.4629C0.652 17.2721 0 15.5938 0 13.7362V6.81733C0 3.18767 2.511 0.450562 5.841 0.450562H15.659ZM15.659 1.96166H5.841C3.326 1.96166 1.5 4.00366 1.5 6.81733V13.7362C1.5 15.1898 1.996 16.4884 2.896 17.392C3.672 18.1728 4.685 18.5838 5.825 18.5838H15.659C15.661 18.5818 15.669 18.5838 15.675 18.5838C16.816 18.5838 17.828 18.1728 18.604 17.392C19.505 16.4884 20 15.1898 20 13.7362V6.81733C20 4.00366 18.174 1.96166 15.659 1.96166ZM17.235 6.62472C17.496 6.94809 17.447 7.42359 17.126 7.68753L12.682 11.3263C12.12 11.7756 11.448 12.0002 10.777 12.0002C10.108 12.0002 9.441 11.7776 8.883 11.3323L4.398 7.68954C4.075 7.42762 4.025 6.95112 4.284 6.62673C4.545 6.30336 5.017 6.25198 5.339 6.5129L9.82 10.1516C10.383 10.6009 11.176 10.6009 11.743 10.1476L16.179 6.51491C16.501 6.24997 16.973 6.30034 17.235 6.62472Z" fill="url(#paint0_linear_1_443)"/>
<defs>
<linearGradient id="paint0_linear_1_443" x1="0" y1="10.2727" x2="21.5" y2="10.2727" gradientUnits="userSpaceOnUse">
<stop stop-color="#02AAB0"/>
<stop offset="1" stop-color="#00CDAC"/>
</linearGradient>
</defs>
</svg>
