<svg width="24" height="28" viewBox="0 0 24 28" fill="none" xmlns="http://www.w3.org/2000/svg">
<path d="M9.28432 23.6372C9.95087 23.4962 14.0125 23.4962 14.679 23.6372C15.2488 23.7688 15.865 24.0763 15.865 24.7477C15.8319 25.387 15.4569 25.9536 14.9387 26.3135C14.2669 26.8373 13.4784 27.169 12.6542 27.2885C12.1983 27.3476 11.7504 27.3489 11.3105 27.2885C10.4849 27.169 9.69644 26.8373 9.02592 26.3122C8.50646 25.9536 8.13144 25.387 8.09831 24.7477C8.09831 24.0763 8.71451 23.7688 9.28432 23.6372ZM12.0604 0.666626C14.8339 0.666626 17.6671 1.98265 19.35 4.16618C20.4419 5.57218 20.9428 6.97683 20.9428 9.16036V9.7284C20.9428 11.403 21.3854 12.39 22.3594 13.5274C23.0975 14.3654 23.3334 15.441 23.3334 16.608C23.3334 17.7736 22.9504 18.8801 22.1832 19.7785C21.1787 20.8555 19.7621 21.5431 18.3164 21.6626C16.2213 21.8412 14.125 21.9916 12.0007 21.9916C9.87521 21.9916 7.78015 21.9016 5.68509 21.6626C4.23802 21.5431 2.82144 20.8555 1.8183 19.7785C1.05104 18.8801 0.666748 17.7736 0.666748 16.608C0.666748 15.441 0.90395 14.3654 1.64073 13.5274C2.6452 12.39 3.05864 11.403 3.05864 9.7284V9.16036C3.05864 6.91775 3.61785 5.45132 4.76941 4.01578C6.4815 1.92222 9.22588 0.666626 11.9411 0.666626H12.0604Z" fill="#373C70"/>
</svg>
