<svg width="20" height="21" viewBox="0 0 20 21" fill="none" xmlns="http://www.w3.org/2000/svg">
<path fill-rule="evenodd" clip-rule="evenodd" d="M7.59175 12.8707C10.8508 12.8707 15.1838 13.2404 15.1838 16.4389C15.1838 19.8082 10.1349 20.0103 7.96916 20.0225L7.18286 20.0225C4.87369 20.0104 -0.000244141 19.8094 -0.000244141 16.459C-0.000244141 13.086 5.04865 12.8836 7.21435 12.8715L7.47455 12.8707C7.5151 12.8707 7.55419 12.8707 7.59175 12.8707ZM7.59175 14.3818C4.81276 14.3818 1.49976 14.7414 1.49976 16.459C1.49976 17.8211 3.54976 18.5121 7.59175 18.5121C11.6338 18.5121 13.6838 17.814 13.6838 16.4389C13.6838 15.0739 11.6338 14.3818 7.59175 14.3818ZM16.7065 12.4001C19.4125 12.8081 19.9795 14.0704 19.9795 15.0566C19.9795 15.791 19.6645 16.7853 18.1615 17.3586C18.0745 17.3918 17.9845 17.4079 17.8955 17.4079C17.5925 17.4079 17.3075 17.2215 17.1945 16.9203C17.0475 16.5305 17.2425 16.0933 17.6295 15.9462C18.4795 15.6218 18.4795 15.2259 18.4795 15.0566C18.4795 14.4854 17.8085 14.0946 16.4855 13.8961C16.0755 13.8337 15.7925 13.4488 15.8535 13.0368C15.9155 12.6238 16.3045 12.3467 16.7065 12.4001ZM7.59175 0.825195C10.4228 0.825195 12.7268 3.14625 12.7268 5.9982C12.7328 7.37229 12.2038 8.66982 11.2398 9.647C10.2778 10.6252 8.99275 11.1662 7.62575 11.1712H7.59175C4.75976 11.1712 2.45576 8.85015 2.45576 5.9982C2.45576 3.14625 4.75976 0.825195 7.59175 0.825195ZM14.6794 1.95731C16.6444 2.2817 18.0704 3.97514 18.0704 5.98289C18.0664 8.00272 16.5694 9.73747 14.5874 10.0175C14.5524 10.0226 14.5174 10.0246 14.4824 10.0246C14.1144 10.0246 13.7934 9.75157 13.7404 9.3738C13.6834 8.96076 13.9684 8.57795 14.3784 8.52053C15.6264 8.34423 16.5684 7.25322 16.5704 5.98188C16.5704 4.7186 15.6724 3.65277 14.4374 3.44927C14.0284 3.38077 13.7514 2.99292 13.8184 2.58089C13.8854 2.16887 14.2724 1.89183 14.6794 1.95731ZM7.59175 2.3363C5.58676 2.3363 3.95576 3.97937 3.95576 5.9982C3.95576 8.01703 5.58676 9.6601 7.59175 9.6601H7.62275C8.58675 9.65607 9.49476 9.27426 10.1758 8.58218C10.8578 7.89211 11.2308 6.97437 11.2268 6.00122C11.2268 3.97937 9.59575 2.3363 7.59175 2.3363Z" fill="url(#paint0_linear_1_453)"/>
<defs>
<linearGradient id="paint0_linear_1_453" x1="-0.000244141" y1="10.4238" x2="19.9795" y2="10.4238" gradientUnits="userSpaceOnUse">
<stop stop-color="#02AAB0"/>
<stop offset="1" stop-color="#00CDAC"/>
</linearGradient>
</defs>
</svg>
