<svg width="10" height="18" viewBox="0 0 10 18" fill="none" xmlns="http://www.w3.org/2000/svg">
<path d="M9.25022 9.00003C9.24751 9.19881 9.17061 9.38941 9.03459 9.5344L1.53459 17.0344C1.38887 17.154 1.20387 17.2151 1.01558 17.2059C0.827293 17.1966 0.649175 17.1177 0.515874 16.9844C0.382573 16.8511 0.303619 16.673 0.294372 16.4847C0.285124 16.2964 0.346244 16.1114 0.465841 15.9657L7.44084 9.00003L0.465841 2.0344C0.346244 1.88868 0.285124 1.70368 0.294372 1.5154C0.303619 1.32711 0.382573 1.14899 0.515874 1.01569C0.649175 0.882385 0.827293 0.803432 1.01558 0.794184C1.20387 0.784937 1.38887 0.846056 1.53459 0.965654L9.03459 8.46565C9.17061 8.61065 9.24751 8.80124 9.25022 9.00003Z" fill="#5EEAD4"/>
</svg>
