<svg width="22" height="20" viewBox="0 0 22 20" fill="none" xmlns="http://www.w3.org/2000/svg">
<path fill-rule="evenodd" clip-rule="evenodd" d="M16.7771 0.84705C14.9596 0.263837 12.6306 0.497968 11.0259 1.98241C9.41377 0.562564 7.16544 0.250495 5.31483 0.847423C1.09359 2.20632 -0.206918 7.07624 0.970463 10.7521C1.91788 13.7009 3.96125 15.8794 5.93772 17.309C6.92986 18.0266 7.9241 18.5697 8.79128 18.9367C9.62558 19.2898 10.4411 19.5222 11.0515 19.5222C11.6653 19.5222 12.4862 19.2839 13.3226 18.9267C14.1933 18.5549 15.1916 18.0062 16.1862 17.2851C18.1652 15.8501 20.2108 13.6711 21.1307 10.7486C22.3062 7.07131 20.9951 2.20507 16.7771 0.84705ZM14.8913 4.56928C14.3419 4.51284 13.8508 4.91245 13.7944 5.46185C13.7379 6.01124 14.1376 6.50237 14.6869 6.55881C15.0385 6.59492 15.2764 6.74116 15.4328 6.93894C15.5956 7.14488 15.7227 7.47605 15.7067 7.9525C15.6882 8.50448 16.1206 8.96696 16.6726 8.98548C17.2246 9.004 17.6871 8.57156 17.7056 8.01958C17.7346 7.15504 17.5067 6.33721 17.0015 5.6984C16.4899 5.05143 15.7468 4.65717 14.8913 4.56928Z" fill="url(#paint0_linear_5_124)"/>
<defs>
<linearGradient id="paint0_linear_5_124" x1="0.556641" y1="10.0372" x2="21.5421" y2="10.0372" gradientUnits="userSpaceOnUse">
<stop stop-color="#DA22FF"/>
<stop offset="1" stop-color="#9733EE"/>
</linearGradient>
</defs>
</svg>
