<svg width="52" height="64" viewBox="0 0 52 64" fill="none" xmlns="http://www.w3.org/2000/svg">
<g filter="url(#filter0_d_1_440)">
<path d="M23.0959 10.834C21.8973 10.8344 20.7479 11.3172 19.9003 12.1762C19.0528 13.0353 18.5765 14.2004 18.5762 15.4153V17.4965H16.5229C15.9289 17.496 15.3407 17.6142 14.7918 17.8444C14.243 18.0746 13.7443 18.4122 13.3243 18.8379C12.9043 19.2637 12.5713 19.7692 12.3442 20.3255C12.1171 20.8818 12.0005 21.4781 12.0011 22.0802V26.6598H18.5751V30.8222H16.5219C15.3229 30.8221 14.173 31.3046 13.325 32.1637C12.477 33.0229 12.0004 34.1881 12 35.4034V43.3183H16.524C17.1174 43.3181 17.7049 43.1993 18.2531 42.9687C18.8012 42.7383 19.2991 42.4007 19.7185 41.9751C20.1379 41.5496 20.4704 41.0444 20.6972 40.4885C20.9239 39.9326 21.0404 39.3371 21.04 38.7356H21.0458V35.7118L21.0337 35.7134V16.4492L21.0437 16.4516V15.4161C21.0448 14.8639 21.2613 14.3346 21.6459 13.9437C22.0306 13.5527 22.5522 13.3319 23.097 13.3293H30.949V15.4161C30.9474 15.968 30.7301 16.4968 30.3449 16.8868C29.9596 17.2768 29.4377 17.4963 28.8932 17.4973H21.973V19.9953H28.8921C30.0907 19.9953 31.2402 19.5128 32.0878 18.6538C32.9355 17.7948 33.4117 16.6297 33.4118 15.4148V10.8335L23.0959 10.834ZM18.5762 24.1616H14.4681V22.0804C14.469 21.5276 14.6857 20.9977 15.071 20.6063C15.4562 20.215 15.9786 19.9942 16.524 19.992H18.5772L18.5762 24.1616ZM18.5762 38.7379C18.5753 39.2897 18.3587 39.8189 17.9739 40.2092C17.5891 40.5997 17.0674 40.8198 16.5229 40.8212H14.467V35.4048C14.4675 34.8525 14.6844 34.3231 15.0699 33.9328C15.4554 33.5425 15.9781 33.3234 16.5229 33.3236H18.5762V38.7379ZM21.973 26.6596H27.1587V28.7429C27.1567 29.2947 26.9393 29.8233 26.5541 30.2132C26.169 30.6031 25.6472 30.8227 25.1028 30.8241H21.973V33.3236H25.1039C25.6975 33.3239 26.2854 33.2057 26.8339 32.9755C27.3824 32.7454 27.8808 32.408 28.3005 31.9825C28.7203 31.557 29.0532 31.0519 29.2802 30.4959C29.5072 29.9399 29.6239 29.3441 29.6236 28.7424H29.6257V24.1611H21.973V26.6596Z" fill="url(#paint0_linear_1_440)"/>
<path d="M23.0958 10.334L23.0959 10.334L33.4118 10.3335L33.9118 10.3335V10.8335V15.4148V15.4148C33.9117 16.7602 33.3844 18.0517 32.4438 19.005C31.5029 19.9585 30.2255 20.4953 28.8921 20.4953H21.973H21.5337V23.6611H21.973H29.6257H30.1257V24.1611V28.7424V29.2424H30.0995C30.0514 29.7373 29.9315 30.2235 29.7431 30.6849C29.4915 31.3011 29.1223 31.8614 28.6564 32.3337C28.1906 32.8059 27.637 33.1808 27.0273 33.4366L23.0958 10.334ZM23.0958 10.334C21.7624 10.3344 20.4852 10.8715 19.5444 11.8251L19.5444 11.8251C18.6039 12.7784 18.0766 14.0699 18.0762 15.4152V15.4153V16.9965M23.0958 10.334L18.5762 16.9965H18.0762M21.5337 33.8236V35.1429L21.5458 35.1413V35.7118V38.7356V39.2356H21.516C21.4679 39.7303 21.3483 40.216 21.1601 40.6773L21.1601 40.6774C20.9088 41.2935 20.5401 41.8538 20.0746 42.3261L19.7271 41.9836L20.0746 42.3261C19.6092 42.7983 19.0562 43.1735 18.4469 43.4296L21.5337 33.8236ZM21.5337 33.8236H21.973H25.1036H25.1039V33.3236M21.5337 33.8236L27.0273 33.4366L26.8339 32.9755C26.2854 33.2057 25.6975 33.3239 25.1039 33.3236M18.0751 27.1598H12.0011H11.5011V26.6598V22.0804V22.0802H12.0011C12.0005 21.4781 12.1171 20.8818 12.3442 20.3255C12.5713 19.7692 12.9043 19.2637 13.3243 18.8379C13.7443 18.4122 14.243 18.0746 14.7918 17.8444L14.5985 17.3833C15.2086 17.1274 15.8627 16.9959 16.5233 16.9965M18.0751 27.1598L18.0762 17.4965V16.9965M18.0751 27.1598V30.3222H16.5219L18.0751 27.1598ZM16.5233 16.9965L16.5229 17.4965V16.9965H16.5233ZM16.5233 16.9965H18.0762M25.1039 33.3236H22.473M25.1039 33.3236H22.473M22.473 33.3236H21.973V32.8236V31.3241M22.473 33.3236L21.973 31.3241M21.973 31.3241V30.8241H22.473H25.1028L21.973 31.3241ZM26.6587 27.1596V28.7418C26.657 29.1634 26.4908 29.5659 26.1984 29.8618L26.1984 29.8618C25.9064 30.1575 25.5122 30.3229 25.1023 30.3241C25.1021 30.3241 25.1018 30.3241 25.1016 30.3241L21.973 30.3241H21.5337V27.1596H21.973H26.6587ZM21.973 16.9973H21.5437V16.4516L21.5437 15.417C21.5437 15.4169 21.5437 15.4167 21.5437 15.4166C21.5446 14.9945 21.7102 14.5912 22.0023 14.2943L22.0023 14.2943C22.294 13.9979 22.6881 13.8315 23.0982 13.8293H30.449L30.449 15.4146C30.449 15.4148 30.449 15.415 30.449 15.4152C30.4476 15.8368 30.2815 16.2395 29.9892 16.5354L30.3449 16.8868L29.9892 16.5354C29.697 16.8312 29.3027 16.9964 28.8927 16.9973H21.973ZM18.0762 38.7373C18.0754 39.159 17.9098 39.562 17.6179 39.8581L17.6178 39.8582C17.326 40.1543 16.932 40.3199 16.5224 40.3212C16.5221 40.3212 16.5219 40.3212 16.5217 40.3212L14.967 40.3212L14.967 35.4052C14.967 35.4052 14.967 35.4051 14.967 35.405C14.9675 34.9832 15.1332 34.5803 15.4256 34.2842C15.7179 33.9883 16.1126 33.8235 16.5227 33.8236H16.5229H18.0762L18.0762 38.7371C18.0762 38.7372 18.0762 38.7373 18.0762 38.7373ZM18.0771 20.492L18.0763 23.6616H14.9681V22.0808C14.9689 21.6582 15.1347 21.2543 15.4273 20.9571C15.7195 20.6603 16.1143 20.4939 16.525 20.492H18.0771Z" stroke="#2E357B"/>
</g>
<defs>
<filter id="filter0_d_1_440" x="0" y="0.833496" width="51.4119" height="62.4847" filterUnits="userSpaceOnUse" color-interpolation-filters="sRGB">
<feFlood flood-opacity="0" result="BackgroundImageFix"/>
<feColorMatrix in="SourceAlpha" type="matrix" values="0 0 0 0 0 0 0 0 0 0 0 0 0 0 0 0 0 0 127 0" result="hardAlpha"/>
<feOffset dx="3" dy="5"/>
<feGaussianBlur stdDeviation="7"/>
<feComposite in2="hardAlpha" operator="out"/>
<feColorMatrix type="matrix" values="0 0 0 0 0.347833 0 0 0 0 0.241667 0 0 0 0 1 0 0 0 0.54 0"/>
<feBlend mode="normal" in2="BackgroundImageFix" result="effect1_dropShadow_1_440"/>
<feBlend mode="normal" in="SourceGraphic" in2="effect1_dropShadow_1_440" result="shape"/>
</filter>
<linearGradient id="paint0_linear_1_440" x1="22.7059" y1="10.8335" x2="22.7059" y2="43.3183" gradientUnits="userSpaceOnUse">
<stop stop-color="#3461FF"/>
<stop offset="1" stop-color="#8454EB"/>
</linearGradient>
</defs>
</svg>
