<svg width="21" height="22" viewBox="0 0 21 22" fill="none" xmlns="http://www.w3.org/2000/svg">
<path fill-rule="evenodd" clip-rule="evenodd" d="M12.897 1.48285C13.311 1.48285 13.647 1.82134 13.647 2.2384C13.647 2.65547 13.311 2.99395 12.897 2.99395H5.629C3.121 2.99395 1.5 4.73071 1.5 7.42047V15.5623C1.5 18.2873 3.082 19.9797 5.629 19.9797H14.233C16.741 19.9797 18.362 18.246 18.362 15.5623V8.47119C18.362 8.05413 18.698 7.71564 19.112 7.71564C19.526 7.71564 19.862 8.05413 19.862 8.47119V15.5623C19.862 19.1083 17.6 21.4908 14.233 21.4908H5.629C2.262 21.4908 0 19.1083 0 15.5623V7.42047C0 3.86939 2.262 1.48285 5.629 1.48285H12.897ZM15.0124 8.3632C15.3404 8.61908 15.4004 9.09356 15.1464 9.42298L12.2164 13.231C12.0944 13.3901 11.9144 13.4939 11.7164 13.5181C11.5164 13.5453 11.3184 13.4868 11.1604 13.3629L8.3424 11.1325L5.8114 14.4459C5.6634 14.6393 5.4414 14.7411 5.2164 14.7411C5.0564 14.7411 4.8954 14.6897 4.7594 14.5849C4.4314 14.33 4.3694 13.8555 4.6224 13.5251L7.6154 9.60633C7.7374 9.44615 7.9184 9.34239 8.1164 9.31721C8.3184 9.29101 8.5164 9.34743 8.6734 9.47335L11.4934 11.7047L13.9604 8.49819C14.2144 8.16676 14.6844 8.1053 15.0124 8.3632ZM17.9674 0.634521C19.4414 0.634521 20.6394 1.84139 20.6394 3.3263C20.6394 4.8112 19.4414 6.01908 17.9674 6.01908C16.4944 6.01908 15.2954 4.8112 15.2954 3.3263C15.2954 1.84139 16.4944 0.634521 17.9674 0.634521ZM17.9674 2.14562C17.3214 2.14562 16.7954 2.67451 16.7954 3.3263C16.7954 3.97708 17.3214 4.50798 17.9674 4.50798C18.6134 4.50798 19.1394 3.97708 19.1394 3.3263C19.1394 2.67451 18.6134 2.14562 17.9674 2.14562Z" fill="url(#paint0_linear_1_449)"/>
<defs>
<linearGradient id="paint0_linear_1_449" x1="0" y1="11.0627" x2="20.6394" y2="11.0627" gradientUnits="userSpaceOnUse">
<stop stop-color="#02AAB0"/>
<stop offset="1" stop-color="#00CDAC"/>
</linearGradient>
</defs>
</svg>
