<svg width="21" height="20" viewBox="0 0 21 20" fill="none" xmlns="http://www.w3.org/2000/svg">
<path fill-rule="evenodd" clip-rule="evenodd" d="M14.6415 0.240479C17.9485 0.240479 20.6385 2.95039 20.6385 6.28287V13.513C20.6385 16.8445 17.9485 19.5554 14.6415 19.5554H5.99751C2.69051 19.5554 -0.000488281 16.8445 -0.000488281 13.513V6.28287C-0.000488281 2.95039 2.69051 0.240479 5.99751 0.240479H14.6415ZM14.6415 1.75158H5.99751C3.51751 1.75158 1.49951 3.78451 1.49951 6.28287V13.513C1.49951 16.0113 3.51751 18.0443 5.99751 18.0443H14.6415C17.1215 18.0443 19.1385 16.0113 19.1385 13.513V13.2309L15.8406 13.2315C13.9436 13.2315 12.3996 11.6771 12.3986 9.76706C12.3986 7.85502 13.9426 6.29959 15.8406 6.29858L19.1385 6.29798V6.28287C19.1385 3.78451 17.1215 1.75158 14.6415 1.75158ZM19.1385 7.80908L15.8406 7.80968C14.7696 7.81069 13.8986 8.68814 13.8986 9.76606C13.8986 10.843 14.7706 11.7204 15.8406 11.7204L19.1385 11.7198V7.80908ZM16.2982 8.94805C16.7122 8.94805 17.0482 9.28653 17.0482 9.7036C17.0482 10.1207 16.7122 10.4591 16.2982 10.4591H15.9862C15.5722 10.4591 15.2362 10.1207 15.2362 9.7036C15.2362 9.28653 15.5722 8.94805 15.9862 8.94805H16.2982ZM10.6845 4.81216C11.0985 4.81216 11.4345 5.15065 11.4345 5.56771C11.4345 5.98478 11.0985 6.32326 10.6845 6.32326H5.28551C4.87151 6.32326 4.53551 5.98478 4.53551 5.56771C4.53551 5.15065 4.87151 4.81216 5.28551 4.81216H10.6845Z" fill="url(#paint0_linear_1_447)"/>
<defs>
<linearGradient id="paint0_linear_1_447" x1="-0.000488281" y1="9.89792" x2="20.6385" y2="9.89792" gradientUnits="userSpaceOnUse">
<stop stop-color="#02AAB0"/>
<stop offset="1" stop-color="#00CDAC"/>
</linearGradient>
</defs>
</svg>
