<svg width="20" height="21" viewBox="0 0 20 21" fill="none" xmlns="http://www.w3.org/2000/svg">
<path fill-rule="evenodd" clip-rule="evenodd" d="M10 0.226807C15.514 0.226807 20 4.74601 20 10.3008C20 15.8556 15.514 20.3748 10 20.3748C4.486 20.3748 0 15.8556 0 10.3008C0 4.74601 4.486 0.226807 10 0.226807ZM10 1.73791C5.313 1.73791 1.5 5.57913 1.5 10.3008C1.5 15.0225 5.313 18.8637 10 18.8637C14.687 18.8637 18.5 15.0225 18.5 10.3008C18.5 5.57913 14.687 1.73791 10 1.73791ZM9.6612 5.35992C10.0762 5.35992 10.4112 5.6984 10.4112 6.11547V10.5702L13.8162 12.6152C14.1712 12.8298 14.2882 13.2932 14.0762 13.6518C13.9352 13.8886 13.6862 14.0205 13.4312 14.0205C13.3002 14.0205 13.1682 13.9863 13.0472 13.9148L9.2772 11.6491C9.0512 11.5121 8.9112 11.2653 8.9112 10.9993V6.11547C8.9112 5.6984 9.2472 5.35992 9.6612 5.35992Z" fill="url(#paint0_linear_1_451)"/>
<defs>
<linearGradient id="paint0_linear_1_451" x1="0" y1="10.3008" x2="20" y2="10.3008" gradientUnits="userSpaceOnUse">
<stop stop-color="#02AAB0"/>
<stop offset="1" stop-color="#00CDAC"/>
</linearGradient>
</defs>
</svg>
