<svg width="21" height="20" viewBox="0 0 21 20" fill="none" xmlns="http://www.w3.org/2000/svg">
<path fill-rule="evenodd" clip-rule="evenodd" d="M5.54339 17.1262C6.25739 17.1262 6.83839 17.7095 6.83839 18.4275C6.83839 19.1455 6.25739 19.7298 5.54339 19.7298C4.82939 19.7298 4.24939 19.1455 4.24939 18.4275C4.24939 17.7095 4.82939 17.1262 5.54339 17.1262ZM16.8237 17.1262C17.5387 17.1262 18.1197 17.7095 18.1197 18.4275C18.1197 19.1455 17.5387 19.7298 16.8237 19.7298C16.1097 19.7298 15.5297 19.1455 15.5297 18.4275C15.5297 17.7095 16.1097 17.1262 16.8237 17.1262ZM1.26759 0.0883979L3.34759 0.450425C3.68259 0.509757 3.93759 0.789323 3.96659 1.13124L4.20159 3.94801L5.07544 3.94839C5.21804 3.94845 5.35912 3.94852 5.49871 3.94858L7.10302 3.94935C7.2309 3.94941 7.35735 3.94948 7.48238 3.94954L9.25378 3.95052C9.36506 3.95058 9.47501 3.95065 9.58364 3.95072L10.825 3.95151C10.9233 3.95158 11.0204 3.95165 11.1163 3.95171L12.2081 3.95252C12.2943 3.95259 12.3793 3.95266 12.4632 3.95273L13.4151 3.95355C13.49 3.95362 13.5638 3.95369 13.6365 3.95375L14.2621 3.95438C14.3285 3.95445 14.3939 3.95452 14.4582 3.95459L15.1828 3.95544C15.2393 3.95551 15.2949 3.95558 15.3495 3.95565L15.9613 3.95651C16.0087 3.95658 16.0552 3.95665 16.1009 3.95672L16.4898 3.95738C16.5305 3.95745 16.5704 3.95752 16.6096 3.9576L17.0427 3.95848C17.0758 3.95855 17.1082 3.95863 17.1399 3.9587L17.4065 3.95937C17.4341 3.95945 17.461 3.95952 17.4873 3.9596L17.773 3.9605C17.7945 3.96058 17.8153 3.96066 17.8356 3.96073L18.0034 3.96142C18.0204 3.9615 18.037 3.96157 18.053 3.96165L18.2227 3.96258C18.2351 3.96266 18.247 3.96274 18.2584 3.96281L18.3509 3.96352C18.3601 3.9636 18.3688 3.96368 18.3772 3.96376L18.4438 3.96447C18.4503 3.96455 18.4564 3.96463 18.4623 3.96471L18.5076 3.96543C18.5118 3.96551 18.5159 3.96559 18.5197 3.96567L18.5483 3.9664C18.5509 3.96649 18.5534 3.96657 18.5557 3.96665L18.5764 3.96763C18.5777 3.96772 18.5789 3.9678 18.58 3.96788C18.5897 3.96879 18.5912 3.96896 18.5926 3.96913C19.1496 4.05059 19.6396 4.34322 19.9736 4.79375C20.3076 5.24326 20.4476 5.79737 20.3676 6.35248L19.4186 12.9474C19.2396 14.2024 18.1556 15.1487 16.8956 15.1487H5.97459C4.65759 15.1487 3.54259 14.1149 3.43559 12.7925L2.51959 1.83719L1.01259 1.57573C0.603593 1.50332 0.330593 1.11414 0.400593 0.702839C0.472593 0.291535 0.867593 0.0240375 1.26759 0.0883979ZM4.87483 5.4568L4.32759 5.45646L4.93059 12.6688C4.97459 13.224 5.42559 13.6403 5.97659 13.6403H16.8936C17.4146 13.6403 17.8596 13.2501 17.9336 12.7322L18.8836 6.13627C18.9056 5.97939 18.8666 5.82251 18.7716 5.6958C18.6776 5.56808 18.5396 5.48562 18.3836 5.4635C18.3764 5.46378 18.3591 5.46403 18.3323 5.46426L18.2235 5.46489C18.2008 5.46498 18.1757 5.46507 18.1485 5.46515L17.582 5.46602C17.5342 5.46605 17.4845 5.46608 17.433 5.4661L16.101 5.46605C16.0267 5.46602 15.9509 5.46599 15.8739 5.46595L14.3538 5.46503C14.2627 5.46496 14.1706 5.46489 14.0776 5.46482L13.2175 5.46413C13.1195 5.46404 13.0208 5.46396 12.9214 5.46387L12.0103 5.46307C11.9074 5.46298 11.8041 5.46288 11.7002 5.46279L11.0727 5.46221C10.9674 5.46211 10.8617 5.46201 10.7559 5.46191L9.79819 5.46101C9.69141 5.46091 9.58456 5.46081 9.4777 5.46071L8.83706 5.46011C8.73044 5.46001 8.62395 5.45991 8.51763 5.45982L7.88243 5.45924C7.77709 5.45914 7.67205 5.45905 7.56738 5.45895L6.63687 5.45815C6.53495 5.45806 6.43357 5.45798 6.33281 5.4579L5.15688 5.457C5.06199 5.45693 4.96795 5.45686 4.87483 5.4568ZM15.2875 7.66513C15.7015 7.66513 16.0375 8.00302 16.0375 8.41935C16.0375 8.83568 15.7015 9.17357 15.2875 9.17357H12.5155C12.1005 9.17357 11.7655 8.83568 11.7655 8.41935C11.7655 8.00302 12.1005 7.66513 12.5155 7.66513H15.2875Z" fill="url(#paint0_linear_1_455)"/>
<defs>
<linearGradient id="paint0_linear_1_455" x1="0.389648" y1="9.90432" x2="20.3896" y2="9.90432" gradientUnits="userSpaceOnUse">
<stop stop-color="#02AAB0"/>
<stop offset="1" stop-color="#00CDAC"/>
</linearGradient>
</defs>
</svg>
