<svg width="22" height="20" viewBox="0 0 22 20" fill="none" xmlns="http://www.w3.org/2000/svg">
<path fill-rule="evenodd" clip-rule="evenodd" d="M16.1652 2.75123C14.6235 2.25675 12.7985 2.65587 11.8862 4.03966C11.7055 4.31376 11.4017 4.48169 11.0735 4.48898C10.7453 4.49627 10.4344 4.34199 10.2417 4.07619C9.23567 2.68858 7.42965 2.26644 5.92839 2.7509C3.11598 3.65612 1.90612 7.11694 2.87453 10.1409C3.65319 12.5639 5.3602 14.4231 7.1096 15.6885C7.98045 16.3184 8.84309 16.787 9.57053 17.0949C10.3309 17.4167 10.8477 17.5222 11.0513 17.5222C11.2521 17.5222 11.7704 17.4148 12.5369 17.0874C13.2691 16.7747 14.1373 16.3 15.0119 15.6659C16.7706 14.3907 18.4729 12.5325 19.2233 10.1462L19.2249 10.1415C20.192 7.11918 18.978 3.65709 16.1652 2.75123ZM11.0257 1.98241C12.6303 0.497968 14.9593 0.263837 16.7768 0.84705C20.9949 2.20507 22.306 7.07131 21.1305 10.7486C20.2106 13.6711 18.165 15.8501 16.1859 17.2851C15.1914 18.0062 14.193 18.5549 13.3224 18.9267C12.4859 19.2839 11.665 19.5222 11.0513 19.5222C10.4408 19.5222 9.62534 19.2898 8.79103 18.9367C7.92385 18.5697 6.92962 18.0266 5.93747 17.309C3.961 15.8794 1.91764 13.7009 0.970219 10.7521C-0.207162 7.07624 1.09334 2.20632 5.31458 0.847423M11.0257 1.98241C9.41353 0.562564 7.1652 0.250495 5.31458 0.847423L11.0257 1.98241Z" fill="url(#paint0_linear_5_147)"/>
<path fill-rule="evenodd" clip-rule="evenodd" d="M13.7944 5.46178C13.8508 4.91239 14.3419 4.51277 14.8913 4.56921C15.7468 4.6571 16.4899 5.05136 17.0015 5.69833C17.5067 6.33714 17.7346 7.15497 17.7056 8.01951C17.687 8.57149 17.2246 9.00394 16.6726 8.98541C16.1206 8.96689 15.6882 8.50441 15.7067 7.95244C15.7227 7.47598 15.5956 7.14481 15.4327 6.93887C15.2763 6.74109 15.0384 6.59485 14.6869 6.55874C14.1375 6.5023 13.7379 6.01117 13.7944 5.46178Z" fill="url(#paint1_linear_5_147)"/>
<defs>
<linearGradient id="paint0_linear_5_147" x1="0.556396" y1="10.0372" x2="21.5419" y2="10.0372" gradientUnits="userSpaceOnUse">
<stop stop-color="#DA22FF"/>
<stop offset="1" stop-color="#9733EE"/>
</linearGradient>
<linearGradient id="paint1_linear_5_147" x1="0.556396" y1="10.0372" x2="21.5419" y2="10.0372" gradientUnits="userSpaceOnUse">
<stop stop-color="#DA22FF"/>
<stop offset="1" stop-color="#9733EE"/>
</linearGradient>
</defs>
</svg>
