<svg width="20" height="22" viewBox="0 0 20 22" fill="none" xmlns="http://www.w3.org/2000/svg">
<path fill-rule="evenodd" clip-rule="evenodd" d="M10.2673 0.417725C10.9833 0.417725 11.6793 0.7139 12.1783 1.22868C12.6763 1.74649 12.9513 2.4567 12.9303 3.177C12.9323 3.33919 12.9853 3.52656 13.0813 3.69077C13.2403 3.96277 13.4913 4.15417 13.7893 4.23275C14.0873 4.3073 14.3993 4.267 14.6643 4.10884C15.9443 3.37243 17.5733 3.81367 18.3043 5.09307L18.9273 6.18006C18.9433 6.20927 18.9573 6.23748 18.9693 6.26669C19.6313 7.52695 19.1893 9.11361 17.9593 9.83793C17.7803 9.94169 17.6353 10.0868 17.5353 10.262C17.3803 10.533 17.3373 10.8554 17.4153 11.1516C17.4953 11.4538 17.6863 11.7046 17.9553 11.8598C18.5623 12.2114 19.0153 12.8037 19.1963 13.4877C19.3773 14.1708 19.2783 14.9122 18.9253 15.5237L18.2613 16.6379C17.5303 17.9032 15.9013 18.3414 14.6343 17.604C14.4653 17.5063 14.2703 17.4529 14.0763 17.4478H14.0703C13.7813 17.4478 13.4843 17.5717 13.2683 17.7883C13.0493 18.009 12.9293 18.3031 12.9313 18.6154C12.9243 20.0953 11.7293 21.2921 10.2673 21.2921H9.01432C7.54532 21.2921 6.35032 20.0892 6.35032 18.6094C6.34832 18.427 6.29632 18.2376 6.19932 18.0734C6.04232 17.7974 5.78832 17.6 5.49532 17.5214C5.20432 17.4428 4.88532 17.4861 4.62332 17.6392C3.99532 17.9918 3.25632 18.0775 2.58032 17.8861C1.90532 17.6936 1.32232 17.2262 0.98032 16.6067L0.35532 15.5217C-0.37568 14.2443 0.0593197 12.6073 1.32532 11.8699C1.68432 11.6613 1.90732 11.2725 1.90732 10.8554C1.90732 10.4383 1.68432 10.0485 1.32532 9.83994C0.0583198 9.0985 -0.37568 7.45744 0.35432 6.18006L1.03232 5.05882C1.75332 3.79554 3.38332 3.35027 4.65432 4.08567C4.82732 4.18943 5.01532 4.24182 5.20632 4.24383C5.82932 4.24383 6.35032 3.72603 6.36032 3.08935C6.35632 2.38719 6.63132 1.71324 7.13232 1.2045C7.63532 0.696775 8.30332 0.417725 9.01432 0.417725H10.2673ZM10.2673 1.92883H9.01432C8.70432 1.92883 8.41432 2.05072 8.19532 2.27033C7.97732 2.49096 7.85832 2.78411 7.86032 3.0964C7.83932 4.56922 6.64432 5.75493 5.19732 5.75493C4.73332 5.7499 4.28632 5.62397 3.89832 5.39025C3.35332 5.07796 2.64132 5.27037 2.32232 5.82948L1.64532 6.95072C1.33532 7.4927 1.52532 8.20896 2.07732 8.53234C2.89632 9.00984 3.40732 9.90039 3.40732 10.8554C3.40732 11.8104 2.89632 12.7 2.07532 13.1785C1.52632 13.4988 1.33632 14.2111 1.65432 14.7651L2.28532 15.8612C2.44132 16.1443 2.69632 16.3488 2.99132 16.4324C3.28532 16.515 3.60932 16.4797 3.87932 16.3286C4.27632 16.0939 4.73832 15.972 5.20232 15.972C5.43132 15.972 5.66032 16.0012 5.88432 16.0616C6.56032 16.245 7.14732 16.7003 7.49532 17.3118C7.72132 17.6957 7.84632 18.1439 7.85032 18.6013C7.85032 19.2561 8.37232 19.781 9.01432 19.781H10.2673C10.9063 19.781 11.4283 19.2591 11.4313 18.6154C11.4273 17.9042 11.7033 17.2282 12.2083 16.7195C12.7063 16.2178 13.4023 15.9166 14.0983 15.9367C14.5543 15.9478 14.9933 16.0717 15.3803 16.2934C15.9373 16.6147 16.6483 16.4233 16.9703 15.8692L17.6343 14.754C17.7823 14.4972 17.8253 14.1748 17.7463 13.8776C17.6683 13.5804 17.4723 13.3225 17.2083 13.1704C16.5903 12.8118 16.1493 12.2335 15.9663 11.5404C15.7853 10.8604 15.8843 10.118 16.2373 9.50649C16.4673 9.10353 16.8043 8.76404 17.2083 8.53032C17.7503 8.21098 17.9403 7.49673 17.6253 6.94064C17.6123 6.91848 17.6003 6.89531 17.5903 6.87113L17.0043 5.84761C16.6853 5.28851 15.9753 5.09609 15.4183 5.41544C14.8163 5.77407 14.1003 5.87683 13.4123 5.69449C12.7253 5.51517 12.1493 5.07695 11.7903 4.45841C11.5603 4.07157 11.4353 3.62126 11.4313 3.16289C11.4403 2.81836 11.3203 2.50909 11.1023 2.28242C10.8853 2.05677 10.5803 1.92883 10.2673 1.92883ZM9.64522 7.44344C11.5122 7.44344 13.0312 8.97469 13.0312 10.8555C13.0312 12.7363 11.5122 14.2656 9.64522 14.2656C7.77822 14.2656 6.25922 12.7363 6.25922 10.8555C6.25922 8.97469 7.77822 7.44344 9.64522 7.44344ZM9.64522 8.95454C8.60522 8.95454 7.75922 9.80781 7.75922 10.8555C7.75922 11.9032 8.60522 12.7545 9.64522 12.7545C10.6852 12.7545 11.5312 11.9032 11.5312 10.8555C11.5312 9.80781 10.6852 8.95454 9.64522 8.95454Z" fill="url(#paint0_linear_1_445)"/>
<defs>
<linearGradient id="paint0_linear_1_445" x1="0" y1="10.8549" x2="19.285" y2="10.8549" gradientUnits="userSpaceOnUse">
<stop stop-color="#02AAB0"/>
<stop offset="1" stop-color="#00CDAC"/>
</linearGradient>
</defs>
</svg>
